<mxfile host="65bd71144e">
    <diagram id="2TNPAzmqJvWSNRFIoBUh" name="Page-1">
        <mxGraphModel dx="393" dy="370" grid="1" gridSize="10" guides="1" tooltips="1" connect="1" arrows="1" fold="1" page="1" pageScale="1" pageWidth="827" pageHeight="1169" math="0" shadow="0">
            <root>
                <mxCell id="0"/>
                <mxCell id="1" parent="0"/>
                <mxCell id="31" value="" style="edgeStyle=none;html=1;strokeColor=#000000;fontSize=8;" parent="1" edge="1">
                    <mxGeometry relative="1" as="geometry">
                        <mxPoint x="386.85" y="330" as="sourcePoint"/>
                        <mxPoint x="433.5" y="261.89781021897807" as="targetPoint"/>
                    </mxGeometry>
                </mxCell>
                <mxCell id="32" value="&lt;font style=&quot;font-size: 24px;&quot;&gt;&lt;br&gt;&lt;/font&gt;" style="rounded=0;whiteSpace=wrap;html=1;strokeColor=#FFB366;" parent="1" vertex="1">
                    <mxGeometry x="50" y="20" width="270" height="220" as="geometry"/>
                </mxCell>
                <mxCell id="46" value="" style="rounded=0;whiteSpace=wrap;html=1;strokeColor=#FFB366;" parent="1" vertex="1">
                    <mxGeometry x="330" y="20" width="230" height="220" as="geometry"/>
                </mxCell>
                <mxCell id="47" value="banka html" style="text;html=1;strokeColor=none;fillColor=none;align=center;verticalAlign=middle;whiteSpace=wrap;rounded=0;fontSize=20;" parent="1" vertex="1">
                    <mxGeometry x="50" y="20" width="110" height="30" as="geometry"/>
                </mxCell>
                <mxCell id="48" value="brúkara html" style="text;html=1;strokeColor=none;fillColor=none;align=center;verticalAlign=middle;whiteSpace=wrap;rounded=0;fontSize=20;" parent="1" vertex="1">
                    <mxGeometry x="330" y="20" width="130" height="30" as="geometry"/>
                </mxCell>
                <mxCell id="49" value="&lt;div style=&quot;text-align: center;&quot;&gt;&lt;br&gt;&lt;/div&gt;" style="rounded=0;whiteSpace=wrap;html=1;" parent="1" vertex="1">
                    <mxGeometry x="140" y="250" width="280" height="130" as="geometry"/>
                </mxCell>
                <mxCell id="50" value="backend servarin" style="text;html=1;strokeColor=none;fillColor=none;align=center;verticalAlign=middle;whiteSpace=wrap;rounded=0;fontSize=20;" parent="1" vertex="1">
                    <mxGeometry x="140" y="250" width="90" height="50" as="geometry"/>
                </mxCell>
                <mxCell id="56" value="echo.js" style="swimlane;fontStyle=0;childLayout=stackLayout;horizontal=1;startSize=30;horizontalStack=0;resizeParent=1;resizeParentMax=0;resizeLast=0;collapsible=1;marginBottom=0;whiteSpace=wrap;html=1;fontSize=13;" parent="1" vertex="1">
                    <mxGeometry x="275.5" y="270" width="114" height="90" as="geometry"/>
                </mxCell>
                <mxCell id="58" value="boð at klik hendi" style="text;strokeColor=none;fillColor=none;align=left;verticalAlign=middle;spacingLeft=4;spacingRight=4;overflow=hidden;points=[[0,0.5],[1,0.5]];portConstraint=eastwest;rotatable=0;whiteSpace=wrap;html=1;fontSize=13;" parent="56" vertex="1">
                    <mxGeometry y="30" width="114" height="30" as="geometry"/>
                </mxCell>
                <mxCell id="102" value="send tøl á konto" style="text;strokeColor=none;fillColor=none;align=left;verticalAlign=middle;spacingLeft=4;spacingRight=4;overflow=hidden;points=[[0,0.5],[1,0.5]];portConstraint=eastwest;rotatable=0;whiteSpace=wrap;html=1;fontSize=13;" parent="56" vertex="1">
                    <mxGeometry y="60" width="114" height="30" as="geometry"/>
                </mxCell>
                <mxCell id="64" value="bank.js" style="swimlane;fontStyle=0;childLayout=stackLayout;horizontal=1;startSize=30;horizontalStack=0;resizeParent=1;resizeParentMax=0;resizeLast=0;collapsible=1;marginBottom=0;whiteSpace=wrap;html=1;fontSize=13;" parent="1" vertex="1">
                    <mxGeometry x="131.5" y="60" width="108.5" height="100" as="geometry">
                        <mxRectangle x="220" y="170" width="60" height="30" as="alternateBounds"/>
                    </mxGeometry>
                </mxCell>
                <mxCell id="67" value="spyr um pening hvørt sekund" style="text;strokeColor=none;fillColor=none;align=left;verticalAlign=middle;spacingLeft=4;spacingRight=4;overflow=hidden;points=[[0,0.5],[1,0.5]];portConstraint=eastwest;rotatable=0;whiteSpace=wrap;html=1;fontSize=13;" parent="64" vertex="1">
                    <mxGeometry y="30" width="108.5" height="40" as="geometry"/>
                </mxCell>
                <mxCell id="115" value="dagføra tekstin" style="text;strokeColor=none;fillColor=none;align=left;verticalAlign=middle;spacingLeft=4;spacingRight=4;overflow=hidden;points=[[0,0.5],[1,0.5]];portConstraint=eastwest;rotatable=0;whiteSpace=wrap;html=1;fontSize=13;" parent="64" vertex="1">
                    <mxGeometry y="70" width="108.5" height="30" as="geometry"/>
                </mxCell>
                <mxCell id="117" value="" style="curved=1;endArrow=classic;html=1;fontSize=13;exitX=1;exitY=0.5;exitDx=0;exitDy=0;entryX=1;entryY=0.5;entryDx=0;entryDy=0;" parent="64" source="67" target="115" edge="1">
                    <mxGeometry width="50" height="50" relative="1" as="geometry">
                        <mxPoint x="50" y="212.5" as="sourcePoint"/>
                        <mxPoint x="100" y="162.5" as="targetPoint"/>
                        <Array as="points">
                            <mxPoint x="138.5" y="50"/>
                            <mxPoint x="138.5" y="85"/>
                        </Array>
                    </mxGeometry>
                </mxCell>
                <mxCell id="69" value="50kr" style="ellipse;whiteSpace=wrap;html=1;aspect=fixed;fontSize=13;fillColor=#008a00;fontColor=#ffffff;strokeColor=#005700;" parent="1" vertex="1">
                    <mxGeometry x="364" y="70" width="50" height="50" as="geometry"/>
                </mxCell>
                <mxCell id="70" value="0kr&amp;nbsp; &amp;nbsp; &amp;nbsp; 500kr" style="rounded=1;whiteSpace=wrap;html=1;fontSize=13;fillColor=#008a00;fontColor=#ffffff;strokeColor=#005700;" parent="1" vertex="1">
                    <mxGeometry x="341" y="170" width="80" height="15" as="geometry"/>
                </mxCell>
                <mxCell id="128" style="edgeStyle=none;html=1;entryX=0;entryY=0.5;entryDx=0;entryDy=0;fontSize=13;startArrow=none;startFill=0;" parent="1" source="133" target="86" edge="1">
                    <mxGeometry relative="1" as="geometry">
                        <mxPoint x="419.5" y="150" as="sourcePoint"/>
                    </mxGeometry>
                </mxCell>
                <mxCell id="131" style="edgeStyle=none;html=1;fontSize=13;startArrow=none;startFill=0;" parent="1" source="133" target="70" edge="1">
                    <mxGeometry relative="1" as="geometry">
                        <mxPoint x="386.17647058823525" y="150" as="sourcePoint"/>
                    </mxGeometry>
                </mxCell>
                <mxCell id="85" value="client.js" style="swimlane;fontStyle=0;childLayout=stackLayout;horizontal=1;startSize=30;horizontalStack=0;resizeParent=1;resizeParentMax=0;resizeLast=0;collapsible=1;marginBottom=0;whiteSpace=wrap;html=1;fontSize=13;" parent="1" vertex="1">
                    <mxGeometry x="450" y="120" width="81" height="60" as="geometry">
                        <mxRectangle x="220" y="170" width="60" height="30" as="alternateBounds"/>
                    </mxGeometry>
                </mxCell>
                <mxCell id="86" value="send boð" style="text;strokeColor=none;fillColor=none;align=left;verticalAlign=middle;spacingLeft=4;spacingRight=4;overflow=hidden;points=[[0,0.5],[1,0.5]];portConstraint=eastwest;rotatable=0;whiteSpace=wrap;html=1;fontSize=13;" parent="85" vertex="1">
                    <mxGeometry y="30" width="81" height="30" as="geometry"/>
                </mxCell>
                <mxCell id="96" value="" style="curved=1;endArrow=classic;html=1;fontSize=13;entryX=1;entryY=0.5;entryDx=0;entryDy=0;" parent="1" source="86" target="58" edge="1">
                    <mxGeometry width="50" height="50" relative="1" as="geometry">
                        <mxPoint x="500" y="190" as="sourcePoint"/>
                        <mxPoint x="520" y="330" as="targetPoint"/>
                        <Array as="points">
                            <mxPoint x="490" y="230"/>
                            <mxPoint x="460" y="315"/>
                        </Array>
                    </mxGeometry>
                </mxCell>
                <mxCell id="107" style="edgeStyle=none;html=1;fontSize=13;exitX=0;exitY=0.5;exitDx=0;exitDy=0;" parent="1" source="58" target="127" edge="1">
                    <mxGeometry relative="1" as="geometry">
                        <mxPoint x="355.41999999999996" y="265.03999999999996" as="targetPoint"/>
                    </mxGeometry>
                </mxCell>
                <mxCell id="110" value="Innlánskonta" style="rounded=0;whiteSpace=wrap;html=1;fontSize=13;fillColor=#60a917;fontColor=#ffffff;strokeColor=#2D7600;" parent="1" vertex="1">
                    <mxGeometry x="200" y="205" width="78" height="20" as="geometry"/>
                </mxCell>
                <mxCell id="111" value="Uppsparingskonta" style="rounded=0;whiteSpace=wrap;html=1;fontSize=13;fillColor=#60a917;fontColor=#ffffff;strokeColor=#2D7600;" parent="1" vertex="1">
                    <mxGeometry x="70" y="205" width="110" height="20" as="geometry"/>
                </mxCell>
                <mxCell id="113" value="" style="curved=1;endArrow=classic;html=1;fontSize=13;entryX=0;entryY=0.5;entryDx=0;entryDy=0;startArrow=classic;startFill=1;" parent="1" source="102" target="67" edge="1">
                    <mxGeometry width="50" height="50" relative="1" as="geometry">
                        <mxPoint x="100" y="440" as="sourcePoint"/>
                        <mxPoint x="260" y="250" as="targetPoint"/>
                        <Array as="points">
                            <mxPoint x="110" y="470"/>
                            <mxPoint x="-40" y="210"/>
                        </Array>
                    </mxGeometry>
                </mxCell>
                <mxCell id="118" style="edgeStyle=none;html=1;fontSize=13;startArrow=none;startFill=0;" parent="1" source="115" target="111" edge="1">
                    <mxGeometry relative="1" as="geometry"/>
                </mxCell>
                <mxCell id="122" style="edgeStyle=none;html=1;fontSize=13;startArrow=none;startFill=0;" parent="1" source="115" target="110" edge="1">
                    <mxGeometry relative="1" as="geometry"/>
                </mxCell>
                <mxCell id="126" style="edgeStyle=none;html=1;entryX=0;entryY=0.5;entryDx=0;entryDy=0;fontSize=13;startArrow=none;startFill=0;" parent="1" source="127" target="102" edge="1">
                    <mxGeometry relative="1" as="geometry">
                        <mxPoint x="356" y="275" as="sourcePoint"/>
                    </mxGeometry>
                </mxCell>
                <mxCell id="127" value="database" style="rounded=0;whiteSpace=wrap;html=1;strokeColor=default;fontSize=13;" parent="1" vertex="1">
                    <mxGeometry x="170" y="320" width="70" height="30" as="geometry"/>
                </mxCell>
                <mxCell id="133" value="&lt;span style=&quot;text-align: left;&quot;&gt;knøtt klikk&lt;/span&gt;" style="rounded=0;whiteSpace=wrap;html=1;strokeColor=default;fontSize=13;" parent="1" vertex="1">
                    <mxGeometry x="362.5" y="125" width="65" height="25" as="geometry"/>
                </mxCell>
            </root>
        </mxGraphModel>
    </diagram>
</mxfile>